<mxfile host="Electron" modified="2023-08-04T07:08:54.696Z" agent="Mozilla/5.0 (Macintosh; Intel Mac OS X 10_15_7) AppleWebKit/537.36 (KHTML, like Gecko) draw.io/21.6.1 Chrome/112.0.5615.204 Electron/24.6.1 Safari/537.36" etag="sAM9GhMg21pKhFqWJWB4" version="21.6.1" type="device">
  <diagram name="第 1 页" id="j9P_hVqYjgrCCnhbdDY5">
    <mxGraphModel dx="1114" dy="809" grid="1" gridSize="10" guides="1" tooltips="1" connect="1" arrows="1" fold="1" page="1" pageScale="1" pageWidth="1654" pageHeight="1169" math="0" shadow="0">
      <root>
        <mxCell id="0" />
        <mxCell id="1" parent="0" />
        <mxCell id="oBZXaGZ13QZd7OLvWDaD-1" value="" style="fontColor=#0066CC;verticalAlign=top;verticalLabelPosition=bottom;labelPosition=center;align=center;html=1;outlineConnect=0;fillColor=#CCCCCC;strokeColor=#6881B3;gradientColor=none;gradientDirection=north;strokeWidth=2;shape=mxgraph.networks.web_server;" parent="1" vertex="1">
          <mxGeometry x="230" y="590" width="105" height="105" as="geometry" />
        </mxCell>
        <mxCell id="oBZXaGZ13QZd7OLvWDaD-2" value="" style="fontColor=#0066CC;verticalAlign=top;verticalLabelPosition=bottom;labelPosition=center;align=center;html=1;outlineConnect=0;fillColor=#CCCCCC;strokeColor=#6881B3;gradientColor=none;gradientDirection=north;strokeWidth=2;shape=mxgraph.networks.web_server;" parent="1" vertex="1">
          <mxGeometry x="380" y="590" width="105" height="105" as="geometry" />
        </mxCell>
        <mxCell id="oBZXaGZ13QZd7OLvWDaD-3" value="" style="fontColor=#0066CC;verticalAlign=top;verticalLabelPosition=bottom;labelPosition=center;align=center;html=1;outlineConnect=0;fillColor=#CCCCCC;strokeColor=#6881B3;gradientColor=none;gradientDirection=north;strokeWidth=2;shape=mxgraph.networks.proxy_server;" parent="1" vertex="1">
          <mxGeometry x="230" y="350" width="105" height="105" as="geometry" />
        </mxCell>
        <mxCell id="oBZXaGZ13QZd7OLvWDaD-4" value="" style="fontColor=#0066CC;verticalAlign=top;verticalLabelPosition=bottom;labelPosition=center;align=center;html=1;outlineConnect=0;fillColor=#CCCCCC;strokeColor=#6881B3;gradientColor=none;gradientDirection=north;strokeWidth=2;shape=mxgraph.networks.proxy_server;" parent="1" vertex="1">
          <mxGeometry x="380" y="350" width="105" height="105" as="geometry" />
        </mxCell>
        <mxCell id="oBZXaGZ13QZd7OLvWDaD-7" value="" style="endArrow=classic;html=1;rounded=0;" parent="1" source="oBZXaGZ13QZd7OLvWDaD-4" target="oBZXaGZ13QZd7OLvWDaD-1" edge="1">
          <mxGeometry width="50" height="50" relative="1" as="geometry">
            <mxPoint x="530" y="480" as="sourcePoint" />
            <mxPoint x="580" y="430" as="targetPoint" />
          </mxGeometry>
        </mxCell>
        <mxCell id="oBZXaGZ13QZd7OLvWDaD-8" value="" style="endArrow=classic;html=1;rounded=0;" parent="1" source="oBZXaGZ13QZd7OLvWDaD-4" target="oBZXaGZ13QZd7OLvWDaD-2" edge="1">
          <mxGeometry width="50" height="50" relative="1" as="geometry">
            <mxPoint x="615" y="480" as="sourcePoint" />
            <mxPoint x="530" y="615" as="targetPoint" />
          </mxGeometry>
        </mxCell>
        <mxCell id="oBZXaGZ13QZd7OLvWDaD-9" value="" style="endArrow=classic;html=1;rounded=0;" parent="1" edge="1">
          <mxGeometry width="50" height="50" relative="1" as="geometry">
            <mxPoint x="274.5" y="455" as="sourcePoint" />
            <mxPoint x="274.5" y="590" as="targetPoint" />
          </mxGeometry>
        </mxCell>
        <mxCell id="oBZXaGZ13QZd7OLvWDaD-10" value="" style="endArrow=classic;html=1;rounded=0;" parent="1" source="oBZXaGZ13QZd7OLvWDaD-3" target="oBZXaGZ13QZd7OLvWDaD-2" edge="1">
          <mxGeometry width="50" height="50" relative="1" as="geometry">
            <mxPoint x="410" y="465" as="sourcePoint" />
            <mxPoint x="325" y="600" as="targetPoint" />
          </mxGeometry>
        </mxCell>
        <mxCell id="oBZXaGZ13QZd7OLvWDaD-11" value="10.11.79.13" style="rounded=1;whiteSpace=wrap;html=1;" parent="1" vertex="1">
          <mxGeometry x="90" y="372.5" width="120" height="60" as="geometry" />
        </mxCell>
        <mxCell id="oBZXaGZ13QZd7OLvWDaD-12" value="10.11.79.14" style="rounded=1;whiteSpace=wrap;html=1;" parent="1" vertex="1">
          <mxGeometry x="500" y="372.5" width="120" height="60" as="geometry" />
        </mxCell>
        <mxCell id="oBZXaGZ13QZd7OLvWDaD-13" value="VIP：10.11.79.11" style="rounded=1;whiteSpace=wrap;html=1;" parent="1" vertex="1">
          <mxGeometry x="215" y="280" width="120" height="60" as="geometry" />
        </mxCell>
        <mxCell id="oBZXaGZ13QZd7OLvWDaD-14" value="VIP：10.11.79.12" style="rounded=1;whiteSpace=wrap;html=1;" parent="1" vertex="1">
          <mxGeometry x="370" y="280" width="120" height="60" as="geometry" />
        </mxCell>
        <mxCell id="oBZXaGZ13QZd7OLvWDaD-15" value="" style="fontColor=#0066CC;verticalAlign=top;verticalLabelPosition=bottom;labelPosition=center;align=center;html=1;outlineConnect=0;fillColor=#CCCCCC;strokeColor=#6881B3;gradientColor=none;gradientDirection=north;strokeWidth=2;shape=mxgraph.networks.web_server;" parent="1" vertex="1">
          <mxGeometry x="840" y="590" width="105" height="105" as="geometry" />
        </mxCell>
        <mxCell id="oBZXaGZ13QZd7OLvWDaD-16" value="" style="fontColor=#0066CC;verticalAlign=top;verticalLabelPosition=bottom;labelPosition=center;align=center;html=1;outlineConnect=0;fillColor=#CCCCCC;strokeColor=#6881B3;gradientColor=none;gradientDirection=north;strokeWidth=2;shape=mxgraph.networks.web_server;" parent="1" vertex="1">
          <mxGeometry x="990" y="590" width="105" height="105" as="geometry" />
        </mxCell>
        <mxCell id="oBZXaGZ13QZd7OLvWDaD-17" value="" style="fontColor=#0066CC;verticalAlign=top;verticalLabelPosition=bottom;labelPosition=center;align=center;html=1;outlineConnect=0;fillColor=#CCCCCC;strokeColor=#6881B3;gradientColor=none;gradientDirection=north;strokeWidth=2;shape=mxgraph.networks.proxy_server;" parent="1" vertex="1">
          <mxGeometry x="840" y="350" width="105" height="105" as="geometry" />
        </mxCell>
        <mxCell id="oBZXaGZ13QZd7OLvWDaD-18" value="" style="fontColor=#0066CC;verticalAlign=top;verticalLabelPosition=bottom;labelPosition=center;align=center;html=1;outlineConnect=0;fillColor=#CCCCCC;strokeColor=#6881B3;gradientColor=none;gradientDirection=north;strokeWidth=2;shape=mxgraph.networks.proxy_server;" parent="1" vertex="1">
          <mxGeometry x="990" y="350" width="105" height="105" as="geometry" />
        </mxCell>
        <mxCell id="oBZXaGZ13QZd7OLvWDaD-19" value="" style="endArrow=classic;html=1;rounded=0;" parent="1" source="oBZXaGZ13QZd7OLvWDaD-18" target="oBZXaGZ13QZd7OLvWDaD-15" edge="1">
          <mxGeometry width="50" height="50" relative="1" as="geometry">
            <mxPoint x="1140" y="480" as="sourcePoint" />
            <mxPoint x="1190" y="430" as="targetPoint" />
          </mxGeometry>
        </mxCell>
        <mxCell id="oBZXaGZ13QZd7OLvWDaD-20" value="" style="endArrow=classic;html=1;rounded=0;" parent="1" source="oBZXaGZ13QZd7OLvWDaD-18" target="oBZXaGZ13QZd7OLvWDaD-16" edge="1">
          <mxGeometry width="50" height="50" relative="1" as="geometry">
            <mxPoint x="1225" y="480" as="sourcePoint" />
            <mxPoint x="1140" y="615" as="targetPoint" />
          </mxGeometry>
        </mxCell>
        <mxCell id="oBZXaGZ13QZd7OLvWDaD-21" value="" style="endArrow=classic;html=1;rounded=0;" parent="1" edge="1">
          <mxGeometry width="50" height="50" relative="1" as="geometry">
            <mxPoint x="884.5" y="455" as="sourcePoint" />
            <mxPoint x="884.5" y="590" as="targetPoint" />
          </mxGeometry>
        </mxCell>
        <mxCell id="oBZXaGZ13QZd7OLvWDaD-22" value="" style="endArrow=classic;html=1;rounded=0;" parent="1" source="oBZXaGZ13QZd7OLvWDaD-17" target="oBZXaGZ13QZd7OLvWDaD-16" edge="1">
          <mxGeometry width="50" height="50" relative="1" as="geometry">
            <mxPoint x="1020" y="465" as="sourcePoint" />
            <mxPoint x="935" y="600" as="targetPoint" />
          </mxGeometry>
        </mxCell>
        <mxCell id="oBZXaGZ13QZd7OLvWDaD-23" value="10.11.79.13" style="rounded=1;whiteSpace=wrap;html=1;" parent="1" vertex="1">
          <mxGeometry x="700" y="372.5" width="120" height="60" as="geometry" />
        </mxCell>
        <mxCell id="oBZXaGZ13QZd7OLvWDaD-24" value="10.11.79.14" style="rounded=1;whiteSpace=wrap;html=1;" parent="1" vertex="1">
          <mxGeometry x="1110" y="372.5" width="120" height="60" as="geometry" />
        </mxCell>
        <mxCell id="oBZXaGZ13QZd7OLvWDaD-25" value="VIP：10.11.79.11" style="rounded=1;whiteSpace=wrap;html=1;" parent="1" vertex="1">
          <mxGeometry x="750" y="280" width="120" height="60" as="geometry" />
        </mxCell>
        <mxCell id="oBZXaGZ13QZd7OLvWDaD-26" value="VIP：10.11.79.12" style="rounded=1;whiteSpace=wrap;html=1;" parent="1" vertex="1">
          <mxGeometry x="880" y="280" width="120" height="60" as="geometry" />
        </mxCell>
        <mxCell id="oBZXaGZ13QZd7OLvWDaD-27" value="" style="html=1;shadow=0;dashed=0;align=center;verticalAlign=middle;shape=mxgraph.arrows2.arrow;dy=0.6;dx=40;direction=south;notch=0;" parent="1" vertex="1">
          <mxGeometry x="247.5" y="160" width="70" height="100" as="geometry" />
        </mxCell>
        <mxCell id="oBZXaGZ13QZd7OLvWDaD-28" value="" style="html=1;shadow=0;dashed=0;align=center;verticalAlign=middle;shape=mxgraph.arrows2.arrow;dy=0.6;dx=40;direction=south;notch=0;" parent="1" vertex="1">
          <mxGeometry x="395" y="160" width="70" height="100" as="geometry" />
        </mxCell>
        <mxCell id="oBZXaGZ13QZd7OLvWDaD-29" value="" style="html=1;shadow=0;dashed=0;align=center;verticalAlign=middle;shape=mxgraph.arrows2.arrow;dy=0.6;dx=40;direction=south;notch=0;" parent="1" vertex="1">
          <mxGeometry x="775" y="170" width="70" height="100" as="geometry" />
        </mxCell>
        <mxCell id="oBZXaGZ13QZd7OLvWDaD-30" value="" style="html=1;shadow=0;dashed=0;align=center;verticalAlign=middle;shape=mxgraph.arrows2.arrow;dy=0.6;dx=40;direction=south;notch=0;" parent="1" vertex="1">
          <mxGeometry x="905" y="170" width="70" height="100" as="geometry" />
        </mxCell>
        <mxCell id="oBZXaGZ13QZd7OLvWDaD-31" value="" style="verticalLabelPosition=bottom;verticalAlign=top;html=1;shape=mxgraph.basic.x;fillColor=#e51400;fontColor=#ffffff;strokeColor=#B20000;" parent="1" vertex="1">
          <mxGeometry x="990" y="350" width="100" height="100" as="geometry" />
        </mxCell>
        <mxCell id="oBZXaGZ13QZd7OLvWDaD-32" value="" style="endArrow=none;dashed=1;html=1;rounded=0;" parent="1" edge="1">
          <mxGeometry width="50" height="50" relative="1" as="geometry">
            <mxPoint x="660" y="690" as="sourcePoint" />
            <mxPoint x="660" y="170" as="targetPoint" />
          </mxGeometry>
        </mxCell>
      </root>
    </mxGraphModel>
  </diagram>
</mxfile>
